Coordinates
version=1
nRows=21
nColumns=22
inDegrees=yes

Units are S.I. units (second, meters, Newtons, ...)
If the header above contains a line with 'inDegrees', this indicates whether rotational values are in degrees (yes) or radians (no).

endheader
time	pelvis_tilt	pelvis_list	pelvis_rotation	pelvis_tx	pelvis_ty	pelvis_tz	hip_flexion_r	hip_adduction_r	hip_rotation_r	knee_angle_r	ankle_angle_r	subtalar_angle_r	hip_flexion_l	hip_adduction_l	hip_rotation_l	knee_angle_l	ankle_angle_l	subtalar_angle_l	lumbar_extension	lumbar_bending	lumbar_rotation
      0.01000000	      4.38132654	     -3.17476007	      3.14133937	      1.18890205	      0.93983754	     -0.09117062	    -10.15148183	      5.69953124	     -8.61427442	     -5.35566160	     11.16119152	     -2.51278015	     -7.34150929	     -2.84418463	     -9.77939740	    -11.78021559	     22.30694038	     -9.08599879	     -9.51565480	      2.85848724	    -11.26024446
      0.02000000	      4.39241621	     -3.17693465	      3.13282221	      1.18880654	      0.93985695	     -0.09123218	    -10.15426094	      5.69669462	     -8.61447554	     -5.36161379	     11.15984063	     -2.51451697	     -7.34381696	     -2.84069759	     -9.77851228	    -11.79037013	     22.30471527	     -9.08728620	     -9.50062330	      2.86725719	    -11.26710722
      0.03000000	      4.40759429	     -3.18363631	      3.12292654	      1.18863528	      0.93987882	     -0.09131024	    -10.14296168	      5.69546713	     -8.60338092	     -5.39408665	     11.16028115	     -2.52570688	     -7.33894054	     -2.84294771	     -9.79514398	    -11.81243563	     22.29626388	     -9.09669799	     -9.49958236	      2.88750500	    -11.30244827
      0.04000000	      4.42660863	     -3.18865119	      3.10981176	      1.18845677	      0.93989917	     -0.09139487	    -10.13732322	      5.69182827	     -8.59201111	     -5.42250229	     11.17136382	     -2.53880950	     -7.33794650	     -2.84216463	     -9.81195989	    -11.83676758	     22.29891761	     -9.10473764	     -9.49775517	      2.90511213	    -11.30982332
      0.05000000	      4.44957821	     -3.19301108	      3.09775139	      1.18826427	      0.93992358	     -0.09149323	    -10.13562733	      5.68677907	     -8.57659356	     -5.45041393	     11.18285907	     -2.54949491	     -7.34365024	     -2.83972879	     -9.82715133	    -11.85403506	     22.30605107	     -9.10980638	     -9.49979062	      2.92294077	    -11.31418125
      0.06000000	      4.47749989	     -3.19738765	      3.08863390	      1.18805231	      0.93995422	     -0.09160144	    -10.13708642	      5.68194783	     -8.55950451	     -5.48014241	     11.19343299	     -2.55848386	     -7.35323857	     -2.83776382	     -9.84155841	    -11.87105999	     22.31309389	     -9.11380245	     -9.50953111	      2.94220951	    -11.31741470
      0.07000000	      4.50811202	     -3.20109995	      3.08165831	      1.18782999	      0.93999002	     -0.09171494	    -10.14090590	      5.67681506	     -8.54393463	     -5.50947108	     11.20282693	     -2.56568070	     -7.36581084	     -2.83538350	     -9.85560214	    -11.88617966	     22.32003558	     -9.11708424	     -9.52403359	      2.96154929	    -11.32117877
      0.08000000	      4.53884777	     -3.20296448	      3.07700459	      1.18760352	      0.94002844	     -0.09182968	    -10.14509354	      5.67029480	     -8.53112960	     -5.53783527	     11.21108238	     -2.57072315	     -7.37950654	     -2.83159790	     -9.86786015	    -11.89813996	     22.32586940	     -9.11988091	     -9.53972778	      2.97834363	    -11.32519755
      0.09000000	      4.55476352	     -3.20251934	      3.08095226	      1.18740403	      0.94004799	     -0.09195722	    -10.14597872	      5.66350180	     -8.52796027	     -5.54397586	     11.21161916	     -2.57113442	     -7.38165386	     -2.82503888	     -9.86947044	    -11.90117465	     22.32630333	     -9.12011459	     -9.53119906	      2.98902222	    -11.32450902
      0.10000000	      4.58249683	     -3.20020859	      3.07172289	      1.18714585	      0.94009341	     -0.09207051	    -10.13800830	      5.65010121	     -8.51338312	     -5.58610227	     11.21667296	     -2.57168038	     -7.39250418	     -2.81479800	     -9.87593062	    -11.90989114	     22.32748045	     -9.12281161	     -9.55223765	      3.00081441	    -11.33742577
      0.11000000	      4.59725633	     -3.19874352	      3.07624375	      1.18692915	      0.94012039	     -0.09220286	    -10.13635635	      5.64184757	     -8.51125977	     -5.59323695	     11.21776347	     -2.57150265	     -7.39324115	     -2.80711509	     -9.87859382	    -11.91026157	     22.32701329	     -9.12351945	     -9.54561264	      3.00969753	    -11.33498128
      0.12000000	      4.61422990	     -3.18110045	      3.04872082	      1.18665789	      0.94016460	     -0.09230334	    -10.10157338	      5.60484513	     -8.52413184	     -5.66335459	     11.24462745	     -2.56235823	     -7.40541250	     -2.77386899	     -9.90285210	    -11.89624234	     22.30479906	     -9.14127601	     -9.55639289	      2.99722351	    -11.30740257
      0.13000000	      4.62656931	     -3.18086674	      3.04718067	      1.18640183	      0.94019876	     -0.09244082	    -10.09526739	      5.59604301	     -8.52317271	     -5.66665996	     11.24434867	     -2.56185855	     -7.40216107	     -2.76398103	     -9.90296801	    -11.89607465	     22.30339370	     -9.14208695	     -9.55220303	      3.00932417	    -11.30702873
      0.14000000	      4.61055940	     -3.17163351	      3.01380291	      1.18608521	      0.94020744	     -0.09252352	    -10.01211922	      5.56402989	     -8.55549867	     -5.75205763	     11.25176549	     -2.54724844	     -7.37195564	     -2.73738863	     -9.91864295	    -11.88801604	     22.26666635	     -9.16916208	     -9.52580240	      3.00064809	    -11.26991691
      0.15000000	      4.61080903	     -3.17678231	      2.99852464	      1.18574442	      0.94023235	     -0.09261725	     -9.95940778	      5.55519223	     -8.56762109	     -5.80858916	     11.24991569	     -2.54059965	     -7.34331107	     -2.73247337	     -9.91778441	    -11.90391810	     22.25798860	     -9.18069397	     -9.51991647	      3.01190684	    -11.25986549
      0.16000000	      4.57978888	     -3.18498590	      2.98238458	      1.18541533	      0.94020909	     -0.09268880	     -9.86954472	      5.54818325	     -8.63281194	     -5.86807045	     11.25566769	     -2.53002084	     -7.27992745	     -2.73291961	     -9.94690762	    -11.92011522	     22.25056905	     -9.19903457	     -9.47361727	      3.01764649	    -11.21859782
      0.17000000	      4.52202877	     -3.19187715	      2.97924389	      1.18506351	      0.94013105	     -0.09278416	     -9.74066305	      5.53899981	     -8.68871707	     -5.94756773	     11.29028371	     -2.51209380	     -7.16068714	     -2.73496584	     -9.95716426	    -11.98508122	     22.26873134	     -9.21308021	     -9.39380879	      3.02581135	    -11.22492332
      0.18000000	      4.53453636	     -3.19309032	      2.98294752	      1.18478619	      0.94015016	     -0.09289345	     -9.73151671	      5.53445340	     -8.68940478	     -5.95316980	     11.28960016	     -2.51174354	     -7.15384252	     -2.72960749	     -9.95668793	    -11.98726710	     22.26925277	     -9.21301489	     -9.38928796	      3.03205629	    -11.22344068
      0.19000000	      4.49677800	     -3.18557500	      2.99413349	      1.18447778	      0.94008237	     -0.09301416	     -9.61797842	      5.51125762	     -8.78659449	     -6.05457711	     11.32067573	     -2.49835981	     -7.06482187	     -2.71765071	     -9.95442385	    -12.03840731	     22.27809831	     -9.21839969	     -9.32847115	      3.02281867	    -11.22635785
      0.20000000	      4.51066629	     -3.17703642	      3.01611295	      1.18421977	      0.94008529	     -0.09316889	     -9.60360474	      5.49754950	     -8.77094343	     -6.08222734	     11.33112842	     -2.49409069	     -7.05089963	     -2.70426984	     -9.93683070	    -12.05671262	     22.28191434	     -9.21798205	     -9.32356048	      3.02174934	    -11.24556100
      0.21000000	      4.52041356	     -3.15115174	      3.05189191	      1.18401359	      0.94007447	     -0.09337370	     -9.58335964	      5.46364849	     -8.81465995	     -6.12246902	     11.38087820	     -2.47695185	     -7.03813504	     -2.66950295	     -9.89835266	    -12.06879307	     22.28184990	     -9.22497813	     -9.30169466	      3.00571479	    -11.27270039
